<mxfile host="app.diagrams.net" agent="Mozilla/5.0 (Windows NT 10.0; Win64; x64) AppleWebKit/537.36 (KHTML, like Gecko) Chrome/135.0.0.0 Safari/537.36" version="26.2.13">
  <diagram name="Page-1" id="wcR6zG70khTZunxf_skn">
    <mxGraphModel dx="874" dy="439" grid="1" gridSize="10" guides="1" tooltips="1" connect="1" arrows="1" fold="1" page="1" pageScale="1" pageWidth="850" pageHeight="1100" math="0" shadow="0">
      <root>
        <mxCell id="0" />
        <mxCell id="1" parent="0" />
        <mxCell id="WHQw3uL27SlAsVPqLfgx-3" value="" style="edgeStyle=orthogonalEdgeStyle;rounded=0;orthogonalLoop=1;jettySize=auto;html=1;" edge="1" parent="1" source="WHQw3uL27SlAsVPqLfgx-1" target="WHQw3uL27SlAsVPqLfgx-2">
          <mxGeometry relative="1" as="geometry" />
        </mxCell>
        <mxCell id="WHQw3uL27SlAsVPqLfgx-1" value="start" style="strokeWidth=2;html=1;shape=mxgraph.flowchart.start_1;whiteSpace=wrap;" vertex="1" parent="1">
          <mxGeometry x="110" y="50" width="100" height="60" as="geometry" />
        </mxCell>
        <mxCell id="WHQw3uL27SlAsVPqLfgx-2" value="start a loop in range of nums&amp;nbsp;&amp;nbsp;" style="whiteSpace=wrap;html=1;strokeWidth=2;" vertex="1" parent="1">
          <mxGeometry x="280" y="50" width="120" height="60" as="geometry" />
        </mxCell>
      </root>
    </mxGraphModel>
  </diagram>
</mxfile>
